<svg width="488" height="260" viewBox="0 0 488 260" fill="none" xmlns="http://www.w3.org/2000/svg">
<g clip-path="url(#clip0_826_233)">
<path d="M194.466 0V131.846H488V0H194.466ZM195.52 130.791V1.05477H267.718V130.791H195.52ZM268.772 1.05477H352.036V130.791H268.772V1.05477ZM486.946 130.791H353.09V1.05477H486.946V130.791Z" fill="white"/>
<path d="M227.864 64.4691H207.895C210.141 55.2466 212.299 46.6364 207.895 40.4878H227.864C231.623 48.4899 231.623 56.4837 227.864 64.4691Z" fill="#FE7912"/>
<path d="M328.259 109.533H308.289C307.04 98.4161 309.796 90.1299 308.289 85.5518H328.259C327.492 93.5271 327.492 101.558 328.259 109.533Z" fill="#E6E6E6"/>
<path d="M303.86 74.5999H283.891C284.639 65.3789 287.054 56.7685 283.891 50.6187H303.86C307.62 58.6124 307.62 66.6061 303.86 74.5999Z" fill="#FE7912"/>
<path d="M321.111 58.918H341.08C342.329 49.6954 339.574 41.0852 341.08 34.9368H321.111C317.351 42.9305 317.351 50.9243 321.111 58.918Z" fill="#FF6584"/>
<path d="M228.474 102.162H248.444C249.693 92.939 246.937 84.3289 248.444 78.1804H228.474C224.714 86.1742 224.714 94.1679 228.474 102.162Z" fill="#E6E6E6"/>
<path d="M243.476 11.3159H214.02V12.3707H243.476V11.3159Z" fill="white"/>
<path d="M324.633 11.3159H295.176V12.3707H324.633V11.3159Z" fill="white"/>
<path d="M434.774 11.3159H405.317V12.3707H434.774V11.3159Z" fill="white"/>
<path d="M31.0469 182.207V183.65C31.049 186.041 31.9992 188.334 33.6889 190.025C35.3787 191.716 37.6699 192.667 40.0596 192.669H116.488C118.878 192.668 121.17 191.718 122.86 190.027C124.55 188.335 125.5 186.042 125.501 183.65V182.207C125.505 180.096 124.764 178.052 123.409 176.434C122.958 175.897 122.448 175.413 121.888 174.991H82.2464C81.7684 174.991 81.31 174.801 80.972 174.463C80.634 174.124 80.444 173.666 80.4438 173.187H40.0596C37.6703 173.191 35.3798 174.142 33.6903 175.833C32.0008 177.523 31.0502 179.816 31.0469 182.207Z" fill="#CCCCCC"/>
<path d="M73.2302 258.694H82.6035L82.6035 192.311H73.2302L73.2302 258.694Z" fill="#CCCCCC"/>
<path d="M46.5527 258.365C46.5527 259.378 60.7565 258.757 78.2776 258.757C95.7988 258.757 110.003 259.378 110.003 258.365C110.003 257.351 95.7988 249.314 78.2776 249.314C60.7565 249.314 46.5527 257.351 46.5527 258.365Z" fill="#CCCCCC"/>
<path d="M126 250.243L134.954 250.243L139.213 215.68L125.998 215.68L126 250.243Z" fill="#BC896D"/>
<path d="M123.716 247.318L141.35 247.317C144.33 247.317 147.189 248.502 149.296 250.611C151.404 252.72 152.588 255.58 152.588 258.563V258.928L123.716 258.929L123.716 247.318Z" fill="white"/>
<path d="M91.339 231.887L84.0845 237.139L60.3867 211.637L71.0936 203.885L91.339 231.887Z" fill="#BC896D"/>
<path d="M98.2773 237.584L74.8864 254.521L74.6723 254.225C72.9253 251.809 72.209 248.797 72.6809 245.852C73.1528 242.907 74.7743 240.27 77.1887 238.522L77.1893 238.521L91.4757 228.177L98.2773 237.584Z" fill="white"/>
<path d="M101.139 97.5335C101.139 97.5335 91.745 90.4917 81.5871 97.5335L74.5566 156.216H95.6666L98.7939 137.437L105.831 109.27L101.139 97.5335Z" fill="#ABC2D3"/>
<path d="M122.288 188.164L84.4013 175.783L66.3399 190.126L85.5271 219.481L75.4916 232.653L75.2046 232.325C73.9596 230.906 44.7124 197.458 44.7971 187.972C44.881 178.564 47.9956 169.108 48.0271 169.013L57.5277 155.517L71.0119 151.549L115.653 157.819L115.726 157.829L133.763 168.816C135.548 169.964 137.052 171.498 138.166 173.305C139.279 175.112 139.972 177.146 140.195 179.258C140.969 186.234 142.527 242.101 142.543 242.665L142.553 243.031H123.071L122.288 188.164Z" fill="#AEC3D3"/>
<path d="M98.2585 174.146C91.6737 171.218 83.2642 159.782 81.8782 157.854C79.1687 159.33 59.4093 169.898 53.839 167.181C53.0298 167.628 49.3726 169.812 48.7139 173.107L48.5487 173.934L48.0713 173.239C47.9833 173.111 39.4013 160.341 50.5034 152.404C60.6263 145.169 63.3497 137.859 63.635 137.022L58.1424 107.969L58.2865 107.835C58.737 107.416 69.4296 97.571 79.1861 96.4001L85.2044 95.3384L85.4677 118.268V147.622C90.3306 147.01 98.0238 95.72 98.0238 95.72L102.044 97.1942C103.083 97.3935 114.757 99.7271 117.855 104.378L117.955 104.529L107.337 133.257L104.232 137.936V143.925L122.374 159.713L122.116 159.983C121.498 160.63 108.12 174.555 100.327 174.553C99.6169 174.564 98.9119 174.426 98.2585 174.146Z" fill="#FDFDFD"/>
<path d="M106.69 80.3707C111.323 71.8883 108.208 61.2529 99.7322 56.616C91.256 51.9791 80.6286 55.0965 75.9951 63.5789C71.3616 72.0614 74.4767 82.6967 82.9529 87.3336C91.429 91.9706 102.056 88.8532 106.69 80.3707Z" fill="#BC896D"/>
<path d="M86.9388 179.359C87.0641 178.365 87.4056 177.411 87.9394 176.563C88.4732 175.715 89.1862 174.995 90.0282 174.453C90.8702 173.911 91.8208 173.56 92.8129 173.425C93.805 173.291 94.8146 173.375 95.7705 173.673L105.796 161.647L114.585 165.961L100.189 182.746C99.5822 184.32 98.4196 185.616 96.9216 186.39C95.4235 187.163 93.6939 187.36 92.0607 186.942C90.4274 186.525 89.0039 185.522 88.0599 184.125C87.1159 182.727 86.717 181.032 86.9388 179.359Z" fill="#A0616A"/>
<path d="M94.0244 169.16L109.752 147.913L105.856 126.86L112.176 103.142L112.336 103.074C112.463 103.019 115.488 101.744 117.79 102.7C118.261 102.894 118.687 103.184 119.04 103.552C119.393 103.919 119.667 104.356 119.843 104.834C121.408 108.749 125.18 148.618 125.34 150.383C125.308 150.705 124.533 158.309 122.958 161.461C121.391 164.598 107.093 180.429 106.485 181.102L106.234 181.379L94.0244 169.16Z" fill="#FDFDFD"/>
<path d="M106.368 67.4698C100.546 74.7976 90.5672 73.4548 82.583 70.7733C83.0475 76.6396 81.4557 82.4846 78.0813 87.3038C79.1124 83.1473 74.7688 82.3201 72.2342 80.7744C71.2584 79.5383 72.0691 77.6933 71.6686 76.17C67.1176 70.8302 64.1018 66.8016 69.9438 60.5355C73.3635 55.9544 77.4681 50.2347 83.9838 51.438C89.1394 45.4191 97.5882 46.9845 103.353 51.1947C105.945 53.1138 108.302 55.3308 110.377 57.8002C109.714 61.0496 108.478 64.1552 106.728 66.9719" fill="black"/>
<path d="M201.311 260H0.526991C0.387224 260 0.253182 259.945 0.154352 259.846C0.0555217 259.747 0 259.613 0 259.473C0 259.333 0.0555217 259.199 0.154352 259.1C0.253182 259.001 0.387224 258.945 0.526991 258.945H201.311C201.45 258.945 201.584 259.001 201.683 259.1C201.782 259.199 201.838 259.333 201.838 259.473C201.838 259.613 201.782 259.747 201.683 259.846C201.584 259.945 201.45 260 201.311 260Z" fill="white"/>
<path d="M101.718 189.003H81.748C82.4968 179.782 84.911 171.171 81.748 165.021H101.718C105.477 173.015 105.477 181.009 101.718 189.003Z" fill="#FE7912"/>
<path d="M92.9925 184.475C92.8672 183.481 92.5257 182.527 91.9919 181.679C91.4581 180.831 90.7451 180.111 89.9031 179.569C89.0611 179.027 88.1105 178.676 87.1184 178.542C86.1262 178.407 85.1167 178.492 84.1608 178.79L74.1357 166.763L65.3467 171.077L79.7424 187.862C80.3491 189.436 81.5117 190.733 83.0097 191.506C84.5078 192.279 86.2373 192.476 87.8706 192.059C89.5039 191.641 90.9274 190.639 91.8714 189.241C92.8154 187.843 93.2143 186.148 92.9925 184.475Z" fill="#BC896D"/>
<path d="M73.561 182.321C72.6644 181.648 51.575 165.785 49.2188 161.07C46.8591 156.346 47.444 142.36 47.4746 141.724C47.5113 141.504 51.1829 119.646 54.2886 111.876C57.5109 103.815 65.616 106.95 65.6976 106.983L65.9425 107.081L62.4133 148.286L81.6636 173.841L73.8207 182.516L73.561 182.321Z" fill="#FDFDFD"/>
</g>
<defs>
<clipPath id="clip0_826_233">
<rect width="488" height="260" fill="white"/>
</clipPath>
</defs>
</svg>
