<svg width="350" height="57" viewBox="0 0 350 57" fill="none" xmlns="http://www.w3.org/2000/svg">
<path d="M103.168 9.84495H86.8477V0.244629H131.192V9.84495H114.924V55.0974H103.168V9.84495Z" fill="white"/>
<path d="M132.318 25.5892C132.318 20.9548 132.318 17.1758 132.222 13.8419H143.288C143.454 14.9415 143.585 18.738 143.585 21.0858C145.33 16.6172 149.563 12.9778 156.676 12.9517V23.8611C148.341 23.6604 143.585 26.0168 143.585 36.9525V55.0883H132.318V25.5892Z" fill="white"/>
<path d="M196.082 44.4321C196.072 47.9947 196.258 51.5551 196.641 55.0971H186.019C185.667 53.7151 185.468 52.2985 185.426 50.873C183.89 53.3953 180.87 56.0048 173.844 56.0048C163.842 56.0048 159.767 49.5028 159.767 43.1404C159.767 34.1336 166.827 29.4381 179.369 29.4381H185.05V26.8198C185.05 23.8001 183.994 20.9724 178.784 20.9724C173.966 20.9724 172.893 23.1019 172.395 26.0955H161.608C162.193 18.9301 166.6 12.8645 179.168 12.9168C189.955 12.9779 196.082 17.0973 196.082 27.0031V44.4321ZM185.129 36.3765H180.442C173.46 36.3765 171.139 38.6544 171.139 42.3898C171.139 45.3397 172.945 47.8358 177.047 47.8358C184.151 47.8358 185.173 42.9397 185.173 37.4151L185.129 36.3765Z" fill="white"/>
<path d="M238.637 41.552C237.258 48.7086 232.353 56.0136 220.195 56.0136C207.401 56.0136 200.934 47.3384 200.934 34.7183C200.934 22.3601 208.326 12.8994 220.771 12.8994C234.596 12.8994 238.41 22.8227 238.637 27.7363H227.57C226.924 24.3063 225.057 21.7404 220.588 21.7404C215.273 21.7404 212.454 26.4446 212.454 34.3605C212.454 43.315 215.535 47.2947 220.51 47.2947C224.585 47.2947 226.566 44.8248 227.561 41.5695L238.637 41.552Z" fill="white"/>
<path d="M254.704 31.2096C257.724 27.1687 263.179 20.6318 268.668 13.8417H281.603C280.8 14.8105 268.241 28.4691 267.368 29.5514C268.293 31.0438 281.978 53.4911 282.929 55.1319H270.108C269.559 54.102 260.429 37.9298 259.853 36.8476C259.853 36.8912 254.739 41.9009 254.704 41.9445V55.1319H243.358V0.218018H254.704V31.2096Z" fill="white"/>
<path d="M293.805 36.9175C293.805 42.0581 296.266 47.1637 302.043 47.1637C306.826 47.1637 308.222 45.0255 309.209 42.6603H320.485C318.914 48.0714 314.375 56.0135 301.738 56.0135C288.236 56.0135 282.424 46.0815 282.424 34.9626C282.424 22.5607 288.76 12.9167 302.157 12.9167C316.261 12.9167 320.956 23.0931 320.956 33.4614C320.977 34.627 320.927 35.7928 320.808 36.9525L293.805 36.9175ZM309.689 29.8919C309.593 25.1179 307.681 21.077 302.113 21.077C296.545 21.077 294.433 25.0917 294.031 29.8919H309.689Z" fill="white"/>
<path d="M325.633 25.5892C325.633 20.9548 325.633 17.1758 325.546 13.8419H336.612C336.778 14.9415 336.909 18.738 336.909 21.0858C338.655 16.6172 342.888 12.9778 350 12.9517V23.8611C341.666 23.6604 336.909 26.0168 336.909 36.9525V55.0883H325.563L325.633 25.5892Z" fill="white"/>
<path d="M80.2851 54.6956H40.915L45.8374 44.8335L72.4303 45.3309L56.1185 24.1928L61.0146 14.3743L84.6489 45.9157L80.2851 54.6956Z" fill="#FE7912"/>
<path d="M24.1143 54.7305L50.3668 0.130859H60.4907L34.308 54.7305H24.1143Z" fill="#FE7912"/>
<path d="M4.32014 0H43.6902L38.7766 9.86215L12.1749 9.35595L28.4868 30.4941L23.6342 40.3388L0 8.76247L4.32014 0Z" fill="#FE7912"/>
</svg>
